<?xml version="1.0" encoding="UTF-8"?>
<svg width="236px" height="221px" viewBox="0 0 236 221" version="1.1" xmlns="http://www.w3.org/2000/svg" xmlns:xlink="http://www.w3.org/1999/xlink">
    <!-- Generator: Sketch 47.1 (45422) - http://www.bohemiancoding.com/sketch -->
    <title>Group</title>
    <desc>Created with Sketch.</desc>
    <defs></defs>
    <g id="Page-1" stroke="none" stroke-width="1" fill="none" fill-rule="evenodd">
        <g id="Group" fill="#5BC1F7">
            <path d="M210.928136,196.640219 L24.3445212,196.640219 L24.3445212,160.173972 L0,160 L0,208.726322 C0,212.08233 1.15070237,214.68363 2.89622426,216.617208 C4.82897346,219.196968 7.86189022,220.983912 12.0836176,220.983912 L223.010925,220.983912 C226.366933,220.983912 228.968233,219.836523 230.900982,218.087688 C233.480742,216.154939 235.271,213.122022 235.271,208.901123 L235.271,160.174801 L210.928136,160 L210.928136,196.640219 Z" id="Shape"></path>
            <path d="M139.42,73.594 L139.42,0.317 L95.346,-1.42108547e-14 L95.346,73.594 L48.846,73.594 L48,73.667 L118.013076,157.629375 L187.806,73.594 L139.42,73.594 Z" id="Shape"></path>
        </g>
    </g>
</svg>